<?xml version="1.0"?>
<svg xmlns="http://www.w3.org/2000/svg" xmlns:xlink="http://www.w3.org/1999/xlink" xmlns:svgjs="http://svgjs.com/svgjs" version="1.1" width="512" height="512" x="0" y="0" viewBox="0 0 512 512" style="enable-background:new 0 0 512 512" xml:space="preserve" class=""><g><g xmlns="http://www.w3.org/2000/svg"><g><path d="m209.407 372.748h-62.125c-4.143 0-7.5 3.358-7.5 7.5s3.357 7.5 7.5 7.5h62.125c4.143 0 7.5-3.358 7.5-7.5s-3.357-7.5-7.5-7.5z" fill="#ffffff" data-original="#000000" style="" class=""/><path d="m209.407 341.706h-62.125c-4.143 0-7.5 3.358-7.5 7.5s3.357 7.5 7.5 7.5h62.125c4.143 0 7.5-3.358 7.5-7.5s-3.357-7.5-7.5-7.5z" fill="#ffffff" data-original="#000000" style="" class=""/><path d="m209.407 248.579h-62.125c-4.143 0-7.5 3.358-7.5 7.5s3.357 7.5 7.5 7.5h62.125c4.143 0 7.5-3.358 7.5-7.5s-3.357-7.5-7.5-7.5z" fill="#ffffff" data-original="#000000" style="" class=""/><path d="m209.407 186.495h-62.125c-4.143 0-7.5 3.358-7.5 7.5s3.357 7.5 7.5 7.5h62.125c4.143 0 7.5-3.358 7.5-7.5s-3.357-7.5-7.5-7.5z" fill="#ffffff" data-original="#000000" style="" class=""/><path d="m209.407 217.438h-62.125c-4.143 0-7.5 3.358-7.5 7.5s3.357 7.5 7.5 7.5h62.125c4.143 0 7.5-3.358 7.5-7.5s-3.357-7.5-7.5-7.5z" fill="#ffffff" data-original="#000000" style="" class=""/><path d="m209.407 279.622h-31.063c-4.143 0-7.5 3.358-7.5 7.5s3.357 7.5 7.5 7.5h31.063c4.143 0 7.5-3.358 7.5-7.5s-3.357-7.5-7.5-7.5z" fill="#ffffff" data-original="#000000" style="" class=""/><path d="m209.407 310.664h-62.125c-4.143 0-7.5 3.358-7.5 7.5s3.357 7.5 7.5 7.5h62.125c4.143 0 7.5-3.358 7.5-7.5s-3.357-7.5-7.5-7.5z" fill="#ffffff" data-original="#000000" style="" class=""/><path d="m364.718 155.313h-186.373c-4.143 0-7.5 3.358-7.5 7.5s3.357 7.5 7.5 7.5h186.373c4.143 0 7.5-3.358 7.5-7.5s-3.358-7.5-7.5-7.5z" fill="#ffffff" data-original="#000000" style="" class=""/><path d="m364.718 124.251h-217.436c-4.143 0-7.5 3.358-7.5 7.5s3.357 7.5 7.5 7.5h217.436c4.143 0 7.5-3.358 7.5-7.5s-3.358-7.5-7.5-7.5z" fill="#ffffff" data-original="#000000" style="" class=""/><path d="m178.345 108.189h186.373c4.143 0 7.5-3.358 7.5-7.5s-3.357-7.5-7.5-7.5h-186.373c-4.143 0-7.5 3.358-7.5 7.5s3.357 7.5 7.5 7.5z" fill="#ffffff" data-original="#000000" style="" class=""/><path d="m178.345 77.126h155.312c4.143 0 7.5-3.358 7.5-7.5s-3.357-7.5-7.5-7.5h-155.312c-4.143 0-7.5 3.358-7.5 7.5s3.357 7.5 7.5 7.5z" fill="#ffffff" data-original="#000000" style="" class=""/></g><g><path d="m426.917.004c-.026 0-.05-.004-.076-.004h-288.69c-16.228 0-29.43 13.202-29.43 29.43v405.443h-54.625c-4.143 0-7.5 3.358-7.5 7.5v31.064c0 21.262 17.298 38.56 38.56 38.56h279.528c.013 0 .026.002.039.002 21.262 0 38.56-17.298 38.56-38.56v-326.409c0-4.142-3.357-7.5-7.5-7.5s-7.5 3.358-7.5 7.5v326.41c0 12.983-10.556 23.547-23.536 23.559-.009 0-.018-.001-.027-.001-12.992 0-23.563-10.57-23.563-23.562v-31.063c0-4.142-3.357-7.5-7.5-7.5h-209.935v-405.443c0-7.957 6.473-14.43 14.43-14.43h258.198c-5.052 6.522-8.069 14.695-8.069 23.564l.001 75.776c0 4.142 3.357 7.5 7.5 7.5s7.5-3.358 7.5-7.5v-37.214h54.623c4.143 0 7.5-3.358 7.5-7.5v-31.062c-.001-21.238-17.259-38.52-38.488-38.56zm-341.762 496.994c-10.37 0-19.19-6.737-22.329-16.062h264.069c1.179 5.958 3.728 11.429 7.315 16.062zm241-31.062h-264.559v-16.063h264.56v16.063zm123.018-434.872h-44.662c3.141-9.325 11.961-16.062 22.332-16.062s19.19 6.737 22.33 16.062zm-45.893 31.062v-16.062h47.124v16.063h-47.124z" fill="#ffffff" data-original="#000000" style="" class=""/><path d="m274.884 386.959 27.707-13.845 27.708 13.845c4.55 2.273 10.853-1.004 10.853-6.709v-66.315c18.711-12.494 31.064-33.796 31.064-57.935 0-38.39-31.232-69.623-69.622-69.623-38.391 0-69.623 31.232-69.623 69.623 0 24.137 12.351 45.438 31.061 57.933v66.318c.239 7.436 5.666 9.082 10.852 6.708zm51.267-18.841-20.208-10.097c-2.111-1.055-4.594-1.055-6.705 0l-20.207 10.097v-46.608c7.363 2.656 15.295 4.112 23.563 4.112 8.266 0 16.196-1.455 23.558-4.111v46.607zm-78.18-112.118c0-30.119 24.504-54.623 54.623-54.623s54.622 24.503 54.622 54.623-24.503 54.623-54.622 54.623-54.623-24.504-54.623-54.623z" fill="#ffffff" data-original="#000000" style="" class=""/><path d="m340.916 256c0-21.131-17.191-38.323-38.322-38.323-21.132 0-38.323 17.191-38.323 38.323s17.191 38.323 38.323 38.323c21.131-.001 38.322-17.192 38.322-38.323zm-61.645 0c0-12.86 10.463-23.323 23.323-23.323s23.322 10.462 23.322 23.323-10.462 23.323-23.322 23.323-23.323-10.463-23.323-23.323z" fill="#ffffff" data-original="#000000" style="" class=""/></g><path d="m147.282 108.19c-4.142 0-7.5-3.358-7.5-7.5 0-4.142 3.358-7.5 7.5-7.5 4.142 0 7.5 3.358 7.5 7.5 0 4.142-3.358 7.5-7.5 7.5z" fill="#ffffff" data-original="#000000" style="" class=""/><path d="m147.282 170.313c-4.142 0-7.5-3.358-7.5-7.5 0-4.142 3.358-7.5 7.5-7.5 4.142 0 7.5 3.358 7.5 7.5 0 4.142-3.358 7.5-7.5 7.5z" fill="#ffffff" data-original="#000000" style="" class=""/><path d="m147.282 294.621c-4.142 0-7.5-3.358-7.5-7.5 0-4.142 3.358-7.5 7.5-7.5 4.142 0 7.5 3.358 7.5 7.5 0 4.142-3.358 7.5-7.5 7.5z" fill="#ffffff" data-original="#000000" style="" class=""/></g></g></svg>
